<svg xmlns="http://www.w3.org/2000/svg" viewBox="0 0 161.9 12.9"><defs><style>.cls-1{fill:#fff;}.cls-2{fill:none;stroke:#f59c22;stroke-miterlimit:10;stroke-width:3px;}</style></defs><g id="Ebene_2" data-name="Ebene 2"><g id="Ebene_1-2" data-name="Ebene 1"><path class="cls-1" d="M18.75,8.91v.7a2.55,2.55,0,0,1-.2,1,2.66,2.66,0,0,1-.55.84,2.57,2.57,0,0,1-.83.59,2.44,2.44,0,0,1-1,.21,4,4,0,0,1-.95-.12,2.33,2.33,0,0,1-1.49-1.27,2.88,2.88,0,0,1-.25-1.29V3.29a3,3,0,0,1,.19-1,2.56,2.56,0,0,1,.55-.83,2.45,2.45,0,0,1,.84-.55,2.85,2.85,0,0,1,1.08-.2A2.49,2.49,0,0,1,18,1.42a2.8,2.8,0,0,1,.55.87,3.07,3.07,0,0,1,.2,1.1V4H17.12V3.49a1.36,1.36,0,0,0-.27-.84.9.9,0,0,0-.74-.35.85.85,0,0,0-.81.38,2.06,2.06,0,0,0-.2.95V9.45a1.48,1.48,0,0,0,.22.84.85.85,0,0,0,.77.33,1.48,1.48,0,0,0,.35,0,1,1,0,0,0,.34-.19A.84.84,0,0,0,17,10a1.34,1.34,0,0,0,.1-.56V8.91Z"/><path class="cls-1" d="M20.94,12.16,23.49.77h1.36l2.54,11.39H25.76l-.48-2.45H23.05l-.48,2.45Zm4-4-.8-4.12h0l-.8,4.12Z"/><path class="cls-1" d="M29.79,12.16V.77h2.62c1.92,0,2.89,1.11,2.89,3.34A4.17,4.17,0,0,1,35,5.82,2.44,2.44,0,0,1,33.89,7l1.76,5.2H33.92L32.4,7.29h-1v4.87ZM31.42,2.3V5.86h.93A1.49,1.49,0,0,0,33,5.73a1,1,0,0,0,.4-.34,1.62,1.62,0,0,0,.17-.55,4.33,4.33,0,0,0,0-.76,4.33,4.33,0,0,0,0-.76,1.42,1.42,0,0,0-.19-.57,1.28,1.28,0,0,0-1.15-.45Z"/><path class="cls-1" d="M38.21,12.16V.77h1.63v9.76h3.23v1.63Z"/><path class="cls-1" d="M45.63,3.45a2.9,2.9,0,0,1,.24-1.21,2.5,2.5,0,0,1,.64-.88,2.56,2.56,0,0,1,.87-.51,2.88,2.88,0,0,1,1-.18,2.78,2.78,0,0,1,1,.18,2.64,2.64,0,0,1,.89.51,2.59,2.59,0,0,1,.62.88,2.9,2.9,0,0,1,.24,1.21v6a2.87,2.87,0,0,1-.24,1.23,2.46,2.46,0,0,1-.62.85,2.7,2.7,0,0,1-.89.53,2.77,2.77,0,0,1-1,.17,2.87,2.87,0,0,1-1-.17,2.61,2.61,0,0,1-.87-.53,2.39,2.39,0,0,1-.64-.85,2.87,2.87,0,0,1-.24-1.23Zm1.63,6a1.06,1.06,0,0,0,.33.87,1.15,1.15,0,0,0,.78.28,1.13,1.13,0,0,0,.77-.28,1.06,1.06,0,0,0,.33-.87v-6a1.09,1.09,0,0,0-.33-.87,1.18,1.18,0,0,0-.77-.28,1.2,1.2,0,0,0-.78.28,1.09,1.09,0,0,0-.33.87Z"/><path class="cls-1" d="M59.42,4.05H57.79V3.68a1.8,1.8,0,0,0-.26-1,1,1,0,0,0-.89-.41,1.12,1.12,0,0,0-.55.13,1.12,1.12,0,0,0-.33.32,1.48,1.48,0,0,0-.18.47,3.31,3.31,0,0,0,0,.55,4.45,4.45,0,0,0,0,.56,1.17,1.17,0,0,0,.12.4A.91.91,0,0,0,56,5a2.57,2.57,0,0,0,.5.25l1.25.5a3,3,0,0,1,.88.49,2.05,2.05,0,0,1,.53.65,2.77,2.77,0,0,1,.24.87,9.05,9.05,0,0,1,.06,1.11,5.68,5.68,0,0,1-.14,1.34,2.84,2.84,0,0,1-.46,1,2.32,2.32,0,0,1-.89.71,3.08,3.08,0,0,1-1.32.25,2.88,2.88,0,0,1-1.11-.2,2.65,2.65,0,0,1-.88-.58,2.72,2.72,0,0,1-.58-.86,2.45,2.45,0,0,1-.22-1.06V8.94h1.64v.51a1.31,1.31,0,0,0,.26.81,1,1,0,0,0,.89.36,1.48,1.48,0,0,0,.65-.12.9.9,0,0,0,.36-.34,1.43,1.43,0,0,0,.15-.54c0-.21,0-.44,0-.69a7.39,7.39,0,0,0,0-.74,1.09,1.09,0,0,0-.13-.46.81.81,0,0,0-.29-.29,3.2,3.2,0,0,0-.49-.24l-1.17-.48a2.57,2.57,0,0,1-1.42-1.15,3.89,3.89,0,0,1-.36-1.78,4.09,4.09,0,0,1,.18-1.22,2.77,2.77,0,0,1,.53-1,2.43,2.43,0,0,1,.85-.66A2.8,2.8,0,0,1,56.7.67a2.81,2.81,0,0,1,2,.82,2.47,2.47,0,0,1,.73,1.76Z"/><path class="cls-1" d="M61.55,12.25,63.66.67h1.28L62.83,12.25Z"/><path class="cls-1" d="M72.58,8.91v.7a2.55,2.55,0,0,1-.2,1,2.69,2.69,0,0,1-.56.84A2.53,2.53,0,0,1,71,12a2.48,2.48,0,0,1-1,.21,3.85,3.85,0,0,1-.94-.12,2.41,2.41,0,0,1-.87-.45,2.63,2.63,0,0,1-.63-.82,3,3,0,0,1-.24-1.29V3.29a2.75,2.75,0,0,1,.19-1A2.7,2.7,0,0,1,68,1.42a2.66,2.66,0,0,1,.84-.55A2.92,2.92,0,0,1,70,.67a2.47,2.47,0,0,1,1.87.75,2.82,2.82,0,0,1,.56.87,3.07,3.07,0,0,1,.2,1.1V4H70.94V3.49a1.36,1.36,0,0,0-.27-.84.9.9,0,0,0-.74-.35.82.82,0,0,0-.8.38,1.94,1.94,0,0,0-.2.95V9.45a1.56,1.56,0,0,0,.21.84.88.88,0,0,0,.78.33,1.4,1.4,0,0,0,.34,0,1,1,0,0,0,.35-.19,1.07,1.07,0,0,0,.24-.35,1.53,1.53,0,0,0,.09-.56V8.91Z"/><path class="cls-1" d="M75.41,3.45a2.9,2.9,0,0,1,.24-1.21,2.5,2.5,0,0,1,.64-.88,2.38,2.38,0,0,1,.87-.51,2.78,2.78,0,0,1,1-.18,2.88,2.88,0,0,1,1,.18,2.49,2.49,0,0,1,1.51,1.39,2.9,2.9,0,0,1,.24,1.21v6a2.87,2.87,0,0,1-.24,1.23,2.48,2.48,0,0,1-.63.85,2.65,2.65,0,0,1-.88.53,2.87,2.87,0,0,1-1,.17,2.77,2.77,0,0,1-1-.17,2.43,2.43,0,0,1-.87-.53,2.39,2.39,0,0,1-.64-.85,2.87,2.87,0,0,1-.24-1.23Zm1.63,6a1.06,1.06,0,0,0,.33.87,1.13,1.13,0,0,0,.77.28,1.15,1.15,0,0,0,.78-.28,1.06,1.06,0,0,0,.33-.87v-6a1.09,1.09,0,0,0-.33-.87,1.2,1.2,0,0,0-.78-.28,1.18,1.18,0,0,0-.77.28,1.09,1.09,0,0,0-.33.87Z"/><path class="cls-1" d="M85,12.16V2.3H83.1V.77h5.41V2.3H86.62v9.86Z"/><path class="cls-1" d="M90.09,12.16,92.64.77H94l2.54,11.39H94.91l-.48-2.45H92.21l-.48,2.45Zm4-4-.8-4.12h0l-.8,4.12Z"/><path class="cls-1" d="M98.25,12.25,100.37.67h1.27L99.53,12.25Z"/><path class="cls-1" d="M109.28,8.91v.7a2.55,2.55,0,0,1-.2,1,2.84,2.84,0,0,1-.55.84,2.57,2.57,0,0,1-.83.59,2.44,2.44,0,0,1-1,.21,3.93,3.93,0,0,1-1-.12,2.29,2.29,0,0,1-.86-.45,2.37,2.37,0,0,1-.63-.82A2.88,2.88,0,0,1,104,9.57V3.29a2.75,2.75,0,0,1,.19-1,2.7,2.7,0,0,1,.54-.83,2.66,2.66,0,0,1,.84-.55,2.92,2.92,0,0,1,1.08-.2,2.49,2.49,0,0,1,1.88.75,3,3,0,0,1,.55.87,3.07,3.07,0,0,1,.2,1.1V4h-1.63V3.49a1.37,1.37,0,0,0-.28-.84.88.88,0,0,0-.73-.35.83.83,0,0,0-.81.38,2.06,2.06,0,0,0-.2.95V9.45a1.56,1.56,0,0,0,.21.84.88.88,0,0,0,.78.33,1.4,1.4,0,0,0,.34,0,1,1,0,0,0,.35-.19.84.84,0,0,0,.24-.35,1.52,1.52,0,0,0,.1-.56V8.91Z"/><path class="cls-1" d="M111.47,12.16,114,.77h1.36l2.55,11.39h-1.64l-.48-2.45h-2.22l-.48,2.45Zm4-4-.8-4.12h0l-.8,4.12Z"/><path class="cls-1" d="M125.6,4.05H124V3.68a1.72,1.72,0,0,0-.26-1,1,1,0,0,0-.89-.41,1.08,1.08,0,0,0-.54.13,1.16,1.16,0,0,0-.34.32,1.47,1.47,0,0,0-.17.47,2.5,2.5,0,0,0-.05.55c0,.23,0,.42,0,.56a1.17,1.17,0,0,0,.12.4,1,1,0,0,0,.28.31,2.69,2.69,0,0,0,.51.25l1.24.5a2.9,2.9,0,0,1,.88.49,1.93,1.93,0,0,1,.53.65,2.77,2.77,0,0,1,.24.87,7.32,7.32,0,0,1,.07,1.11,5.67,5.67,0,0,1-.15,1.34,2.68,2.68,0,0,1-.46,1,2.37,2.37,0,0,1-.88.71,3.13,3.13,0,0,1-1.33.25,2.87,2.87,0,0,1-1.1-.2,2.55,2.55,0,0,1-.88-.58,2.74,2.74,0,0,1-.59-.86A2.61,2.61,0,0,1,120,9.55V8.94h1.63v.51a1.37,1.37,0,0,0,.26.81,1,1,0,0,0,.89.36,1.45,1.45,0,0,0,.65-.12.9.9,0,0,0,.36-.34,1.43,1.43,0,0,0,.15-.54c0-.21,0-.44,0-.69a7.39,7.39,0,0,0,0-.74,1.09,1.09,0,0,0-.13-.46.81.81,0,0,0-.29-.29A2.8,2.8,0,0,0,123,7.2l-1.17-.48a2.58,2.58,0,0,1-1.41-1.15,3.89,3.89,0,0,1-.36-1.78,4.44,4.44,0,0,1,.17-1.22,2.94,2.94,0,0,1,.53-1,2.47,2.47,0,0,1,.86-.66,2.77,2.77,0,0,1,1.24-.25A2.72,2.72,0,0,1,124,.9a2.53,2.53,0,0,1,.87.59,2.48,2.48,0,0,1,.74,1.76Z"/><path class="cls-1" d="M129.48,12.16V2.3H127.6V.77H133V2.3h-1.89v9.86Z"/><path class="cls-1" d="M135.32,12.16V.77H138q2.88,0,2.88,3.34a4.35,4.35,0,0,1-.31,1.71A2.46,2.46,0,0,1,139.42,7l1.76,5.2h-1.73l-1.52-4.87h-1v4.87ZM137,2.3V5.86h.92a1.49,1.49,0,0,0,.69-.13.89.89,0,0,0,.4-.34,1.43,1.43,0,0,0,.18-.55,5.8,5.8,0,0,0,0-1.52,1.6,1.6,0,0,0-.19-.57,1.31,1.31,0,0,0-1.16-.45Z"/><path class="cls-1" d="M143.64,3.45a2.9,2.9,0,0,1,.24-1.21,2.63,2.63,0,0,1,.64-.88,2.51,2.51,0,0,1,.88-.51,2.76,2.76,0,0,1,2,0,2.55,2.55,0,0,1,.89.51,2.61,2.61,0,0,1,.63.88,2.9,2.9,0,0,1,.24,1.21v6a2.87,2.87,0,0,1-.24,1.23,2.48,2.48,0,0,1-.63.85,2.6,2.6,0,0,1-.89.53,2.91,2.91,0,0,1-2,0,2.56,2.56,0,0,1-.88-.53,2.51,2.51,0,0,1-.64-.85,2.87,2.87,0,0,1-.24-1.23Zm1.64,6a1.06,1.06,0,0,0,.32.87,1.23,1.23,0,0,0,1.56,0,1.09,1.09,0,0,0,.32-.87v-6a1.12,1.12,0,0,0-.32-.87,1.23,1.23,0,0,0-1.56,0,1.08,1.08,0,0,0-.32.87Z"/><path class="cls-2" d="M7.23,1,2.08,6.79l5.15,4.9"/><path class="cls-2" d="M154.67,1.11l5.14,5.8-5.14,4.9"/></g></g></svg>